<svg width="60" height="60" viewBox="0 0 60 60" fill="none" xmlns="http://www.w3.org/2000/svg">
<path d="M8.64372 15.0759C8.64372 13.8623 9.12582 12.6984 9.98398 11.8402C10.8421 10.9821 12.006 10.5 13.2197 10.5H21.6516C24.5741 10.5 27.0207 12.2083 28.7016 14.1119C29.9523 15.5274 31.4624 16.6012 33.0487 16.6012H46.7765C47.9901 16.6012 49.1541 17.0833 50.0122 17.9415C50.8704 18.7996 51.3525 19.9636 51.3525 21.1772V23.1296C53.0913 23.938 54.2201 25.8019 53.9638 27.8458L52.0114 43.4772C51.7807 45.323 50.8835 47.0208 49.4885 48.2512C48.0934 49.4817 46.2968 50.1598 44.4367 50.1581H15.5564C13.6974 50.1583 11.9022 49.4795 10.5085 48.2492C9.11474 47.0189 8.21835 45.322 7.98783 43.4772L6.03543 27.8458C5.91515 26.8848 6.10288 25.9105 6.57158 25.063C7.04029 24.2155 7.76581 23.5385 8.64372 23.1296V15.0759ZM11.6943 22.7025H48.3018V21.1772C48.3018 20.7726 48.1411 20.3847 47.8551 20.0986C47.569 19.8126 47.1811 19.6519 46.7765 19.6519H33.0487C30.1079 19.6519 27.8321 17.733 26.4167 16.1314C25.0378 14.5695 23.3477 13.5506 21.6516 13.5506H13.2197C12.8151 13.5506 12.4271 13.7113 12.1411 13.9974C11.855 14.2834 11.6943 14.6714 11.6943 15.0759V22.7025ZM10.5748 25.7531C10.3585 25.7532 10.1448 25.7992 9.94768 25.8882C9.75058 25.9771 9.57466 26.107 9.43157 26.2691C9.28849 26.4312 9.18151 26.6219 9.11773 26.8285C9.05395 27.0352 9.03484 27.253 9.06165 27.4676L11.0141 43.099C11.1524 44.206 11.6904 45.2244 12.5269 45.9626C13.3634 46.7007 14.4408 47.1079 15.5564 47.1075H44.4398C45.5554 47.1079 46.6328 46.7007 47.4693 45.9626C48.3058 45.2244 48.8438 44.206 48.9821 43.099L50.9345 27.4676C50.9613 27.253 50.9422 27.0352 50.8785 26.8285C50.8147 26.6219 50.7077 26.4312 50.5646 26.2691C50.4215 26.107 50.2456 25.9771 50.0485 25.8882C49.8514 25.7992 49.6377 25.7532 49.4214 25.7531H10.5748Z" fill="#A3A3A3"/>
</svg>
