<svg width="206" height="48" viewBox="0 0 206 48" fill="none" xmlns="http://www.w3.org/2000/svg">
<path d="M62.9382 47.4843C63.0811 47.5092 63.224 47.5291 63.3694 47.549C63.7981 47.5987 64.2369 47.6211 64.6856 47.6087C64.8636 47.6062 65.0416 47.5962 65.2222 47.5813C65.3626 47.5689 65.503 47.5565 65.6459 47.5391C66.1849 47.4744 66.6387 47.0815 66.7666 46.5594C66.917 45.9402 66.8343 45.3235 66.6813 44.6969C66.6512 44.5776 66.6212 44.4607 66.5886 44.3413C66.4858 43.9609 66.3654 43.5755 66.2677 43.1826C66.2376 43.0632 66.21 42.9414 66.1849 42.8196C66.1172 42.4814 66.0696 42.1407 66.0696 41.7901C66.0696 41.7677 66.0721 41.7404 66.0721 41.718C66.0796 41.5688 66.1022 41.4047 66.1373 41.2257C66.2401 40.7483 66.4356 40.1813 66.6362 39.6019L66.7089 39.321L66.7916 39.1419C67.0724 38.2965 67.3056 37.466 67.1978 36.8792V36.8742C67.1326 36.5261 66.9496 36.2675 66.5861 36.1407C66.5083 36.1133 66.4231 36.0909 66.3278 36.076C66.2702 36.076 66.2125 36.076 66.1548 36.0785C65.6835 36.0835 65.2021 36.0934 64.7207 36.1158C64.5377 36.1257 64.3572 36.1382 64.1767 36.1506C63.5198 36.1978 62.8629 36.2724 62.2286 36.3943C62.0005 36.4366 61.7773 36.4838 61.5567 36.5385C60.594 36.7772 59.6964 37.1303 58.9367 37.6599C58.7713 37.7768 58.6233 37.8837 58.4804 37.9907C57.2118 38.9455 56.748 39.587 55.893 40.0943C55.883 40.1465 55.8905 40.1017 55.893 40.0819C55.9006 39.9973 55.878 39.9103 55.8329 39.8332C55.7677 39.7188 55.6549 39.6268 55.532 39.6094C55.2236 39.6765 54.9854 39.7014 54.6771 39.6964H54.5492C54.4038 39.7014 54.2584 39.6964 54.113 39.6865C53.9299 39.6741 53.7494 39.6492 53.5664 39.6094C53.3633 39.6392 53.1828 39.868 53.2054 40.0819C53.2104 40.1017 53.2154 40.1465 53.2054 40.0943C52.9572 39.9476 52.7415 39.7884 52.5284 39.6119C52.4432 39.5423 52.3605 39.4702 52.2752 39.3956C52.0646 39.2091 51.8465 39.0077 51.5933 38.7864C51.513 38.7167 51.4278 38.6421 51.34 38.5675C51.1294 38.3885 50.8938 38.197 50.6205 37.9931C50.5327 37.926 50.4425 37.8589 50.3472 37.7917C50.287 37.747 50.2269 37.7022 50.1617 37.6575C49.9135 37.4834 49.6502 37.3292 49.3744 37.1925C49.2691 37.1403 49.1563 37.088 49.0485 37.0383C48.7351 36.9015 48.4117 36.7822 48.0757 36.6802C47.9504 36.6405 47.8225 36.6081 47.6946 36.5733C47.3311 36.4788 46.9575 36.4017 46.579 36.3396C46.436 36.3147 46.2931 36.2923 46.1502 36.2724C45.6563 36.2053 45.1524 36.1605 44.651 36.1282C44.493 36.1183 44.3351 36.1108 44.1771 36.1034C43.7208 36.0835 43.2695 36.076 42.8232 36.0735H42.7681C42.229 36.1556 41.9733 36.4515 41.8956 36.8717C41.8379 37.1875 41.878 37.5779 41.9733 38.0006C42.0009 38.1175 42.031 38.2393 42.0636 38.3587C42.1639 38.7242 42.2917 39.1071 42.4221 39.4876C42.4622 39.5995 42.4998 39.7114 42.5374 39.8233C42.6477 40.1465 42.7555 40.4623 42.8408 40.7582C42.8759 40.8825 42.9085 40.9969 42.9336 41.1138C42.9912 41.3624 43.0288 41.5912 43.0288 41.7901C43.0288 41.9443 43.0188 42.0985 43.0012 42.2526C42.9837 42.4217 42.9586 42.5883 42.926 42.7524C42.8007 43.3865 42.5926 44.0007 42.4396 44.6074C42.377 44.8585 42.3243 45.1022 42.2892 45.3509C42.2341 45.7388 42.2366 46.1366 42.3218 46.5196C42.3369 46.5892 42.3544 46.6563 42.377 46.726C42.4497 46.9572 42.555 47.1909 42.7029 47.4222C42.7756 47.4371 42.8433 47.4471 42.916 47.4595C43.0589 47.4868 43.2018 47.5092 43.3422 47.5291C43.8813 47.6012 44.4053 47.6261 44.9142 47.6112C45.0972 47.6087 45.2777 47.5938 45.4558 47.5788C46.0675 47.5241 46.6542 47.4147 47.2208 47.2556C47.4991 47.1785 47.7699 47.0865 48.0356 46.987C48.7802 46.711 49.4822 46.353 50.1441 45.9501C50.9264 45.4677 51.4804 44.9605 51.9994 44.4955C52.1047 44.4234 52.2928 44.3612 52.5309 44.309C52.7115 44.2717 52.9221 44.2369 53.1502 44.212C53.5814 44.1623 54.0754 44.135 54.5442 44.1374C54.662 44.1374 54.7824 44.1374 54.9002 44.1424C55.0607 44.1474 55.2211 44.1524 55.3791 44.1648C55.8329 44.1946 56.2616 44.2468 56.5875 44.319C56.7354 44.3538 56.8633 44.3911 56.9586 44.4333C57.0087 44.4532 57.0513 44.4756 57.0864 44.498C57.2745 44.6646 57.465 44.8386 57.6706 45.0152L57.6756 45.0127C57.7609 45.0823 57.8461 45.152 57.9339 45.2241L57.9289 45.229C58.1971 45.4479 58.498 45.6692 58.8364 45.883C58.8715 45.9054 58.9066 45.9278 58.9417 45.9526C59.0044 45.9899 59.0671 46.0272 59.1298 46.062C59.4056 46.2286 59.6914 46.3803 59.9822 46.5245C60.0875 46.5792 60.1978 46.6315 60.3056 46.6812C60.614 46.8204 60.9299 46.9497 61.2508 47.0641C61.3712 47.1064 61.494 47.1462 61.6169 47.1835C62.0531 47.3053 62.4894 47.4122 62.9382 47.4843Z" fill="#1C1C1C"/>
<path d="M42.7806 35.1734H42.8358C43.3773 35.1784 43.8136 35.1883 44.2172 35.2057C44.3777 35.2132 44.5407 35.2206 44.7011 35.2306C45.2677 35.2654 45.7742 35.3151 46.253 35.3798C46.4035 35.3997 46.5539 35.4245 46.7043 35.4494C47.0528 35.5066 47.3863 35.5762 47.7022 35.6558C47.0127 33.6665 46.6667 31.2471 46.6667 28.4025C46.6667 24.9462 47.1331 22.0941 48.0682 19.8437C49.4096 16.6311 51.5607 15.0223 54.5241 15.0223C56.6753 15.0223 58.3601 15.8876 59.5786 17.6133C61.4865 20.3062 62.4417 23.9814 62.4417 28.6412C62.4417 31.3988 62.186 33.7163 61.6771 35.5936C61.82 35.5613 61.9654 35.529 62.1108 35.5016C62.7251 35.3848 63.3895 35.3027 64.1341 35.248C64.3196 35.2356 64.5026 35.2231 64.6882 35.2132C65.1294 35.1908 65.6083 35.1784 66.1523 35.1734C66.2376 35.1709 66.3379 35.1635 66.4356 35.1784C66.4908 35.1858 66.5435 35.1983 66.5961 35.2107C67.6441 33.2016 68.1681 30.9537 68.1681 28.4597C68.1681 24.4016 66.8794 20.995 64.2996 18.2424C61.7197 15.4898 58.5231 14.1147 54.7072 14.1147C50.6882 14.1147 47.3888 15.4301 44.8114 18.0634C42.2316 20.6966 40.9429 24.0808 40.9429 28.2185C40.9429 30.7995 41.5145 33.1195 42.6503 35.1858C42.6603 35.1833 42.6703 35.1809 42.6804 35.1784C42.7129 35.1759 42.748 35.1734 42.7806 35.1734Z" fill="#4C4B4B"/>
<path d="M99.8861 14.5747C99.8861 14.8805 99.5 15.0173 98.7328 14.9875H97.7174H96.8875C96.3961 14.9875 96.1028 15.072 96.01 15.2386C95.9172 15.4052 95.8721 15.9174 95.8721 16.7703V43.0931C95.8721 44.7069 95.8571 45.6517 95.827 45.9253C95.7969 46.1988 95.7041 46.3355 95.5512 46.3355C95.3657 46.3355 95.1525 46.1665 94.9068 45.8308L89.01 37.2646C85.5903 32.2914 81.4334 26.08 76.5369 18.6353V44.1847C76.567 44.5825 76.8002 44.8337 77.2364 44.9406C77.6727 45.0475 78.7131 45.1171 80.3603 45.147C80.764 45.147 80.9671 45.2688 80.9671 45.5125C80.9671 45.8183 80.5659 45.97 79.7661 45.97C79.4904 45.97 78.6128 45.9253 77.1361 45.8333C76.6447 45.8034 76.1659 45.7885 75.7045 45.7885C75.7346 45.7885 75.4664 45.8183 74.8972 45.8805C74.3281 45.9402 73.4581 45.9725 72.2898 45.9725H71.8285C71.1215 45.9725 70.768 45.8358 70.768 45.5597C70.768 45.2862 71.0763 45.147 71.6906 45.147C73.5058 45.1171 74.5588 45.0028 74.8521 44.8038C75.1429 44.6049 75.2909 43.9559 75.2909 42.8569V20.259C75.2909 17.7227 74.7669 16.1338 73.7214 15.4922C73.23 15.1864 72.3525 15.0347 71.0914 15.0347C70.2916 15.0347 69.8904 14.8756 69.8904 14.5523C69.8904 14.2639 70.1211 14.1197 70.5824 14.1197C71.1967 14.1197 71.9814 14.1495 72.9366 14.2117C73.8894 14.2738 74.3983 14.3037 74.4585 14.3037C74.5513 14.3037 74.9825 14.2887 75.7497 14.2589C76.7651 14.2589 77.7504 14.2141 78.7031 14.1221L94.6235 37.6898V17.3248C94.6235 16.3799 94.6085 15.808 94.5784 15.6091C94.5483 15.4102 94.423 15.2585 94.2099 15.1516C93.9942 15.0447 93.2571 14.9924 91.996 14.9924C90.8879 14.9924 90.3338 14.8557 90.3338 14.5797C90.3338 14.2738 90.7023 14.1221 91.442 14.1221H93.0566C93.4552 14.1221 93.8864 14.1221 94.3478 14.1221C94.8392 14.1221 95.1325 14.1221 95.2253 14.1221C95.2553 14.1221 95.5336 14.1221 96.0551 14.1221C96.5465 14.1221 97.0078 14.1221 97.4391 14.1221H98.8707C99.5476 14.1172 99.8861 14.2688 99.8861 14.5747Z" fill="#4C4B4B"/>
<path d="M126.374 22.3079C126.374 22.7058 126.189 22.9022 125.82 22.9022C125.452 22.9022 125.188 22.5069 125.035 21.7112C124.973 21.1616 124.912 20.6121 124.85 20.0626C124.634 18.9635 124.281 18.0335 123.789 17.2702C123.142 16.2631 122.082 15.6216 120.605 15.348C119.652 15.164 118.883 15.0894 118.299 15.1193C116.852 15.1591 115.974 15.1914 115.669 15.2113V42.8519C115.669 43.9534 115.962 44.6397 116.546 44.9133C116.854 45.0674 117.714 45.1594 119.131 45.1893C119.5 45.2191 119.685 45.3484 119.685 45.5772C119.685 45.8358 119.439 45.9651 118.948 45.9651C118.702 45.9651 118.487 45.9502 118.301 45.9203C116.456 45.8606 115.147 45.8283 114.38 45.8283C113.365 45.8283 112.412 45.8507 111.519 45.8979C110.627 45.9427 109.488 45.9676 108.105 45.9676C107.398 45.9676 107.044 45.8457 107.044 45.602C107.044 45.3285 107.706 45.1743 109.027 45.1445C109.98 45.1445 110.597 44.9456 110.872 44.5477C111.025 44.3041 111.103 43.6774 111.103 42.6679V15.2138C108.057 15.2436 106.167 15.3978 105.427 15.6713C103.489 16.3725 102.351 18.2499 102.012 21.3009C101.919 22.2159 101.704 22.6735 101.365 22.6735C100.997 22.6735 100.811 22.3527 100.811 21.7112C100.811 21.3755 100.826 21.0398 100.856 20.7041L100.949 19.6523C101.042 18.2499 101.18 16.4023 101.365 14.1147H103.441L112.856 14.2515C113.964 14.2813 115.686 14.2813 118.023 14.2515L125.682 14.1147C125.742 15.823 125.943 18.3568 126.281 21.7112C126.281 21.8032 126.296 21.9175 126.327 22.0543C126.359 22.1935 126.374 22.2781 126.374 22.3079Z" fill="#4C4B4B"/>
<path d="M152.17 42.3098C152.17 43.103 152.125 44.4159 152.032 46.2461H151.526C151.34 46.2461 150.897 46.2162 150.19 46.1541C149.483 46.0919 148.685 46.0621 147.795 46.0621L128.636 45.9253C128.114 45.9253 127.853 45.7885 127.853 45.5125C127.853 45.2987 128.27 45.1619 129.099 45.0998C130.268 45.0401 130.967 44.9108 131.2 44.7118C131.431 44.5129 131.546 43.941 131.546 42.9961V17.2751C131.546 16.1462 131.431 15.4898 131.2 15.3058C130.97 15.1218 130.147 15.0322 128.731 15.0322C128.147 15.0322 127.853 14.8657 127.853 14.53C127.853 14.2564 128.039 14.1172 128.407 14.1172H128.824C129.839 14.2092 131.852 14.254 134.868 14.254C135.144 14.254 135.683 14.2316 136.483 14.1843C137.283 14.1396 137.945 14.1147 138.466 14.1147H138.973C139.527 14.1147 139.802 14.2689 139.802 14.5722C139.802 14.7562 139.717 14.8706 139.549 14.9154C139.379 14.9601 138.85 14.9999 137.957 15.0298C137.065 15.0596 136.533 15.2063 136.365 15.4649C136.195 15.7235 136.112 16.5242 136.112 17.8669V44.8685C136.942 44.8983 138.095 44.9133 139.572 44.9133C143.172 44.9133 145.709 44.7293 147.186 44.3637C148.663 43.9982 149.663 43.3119 150.185 42.3049C150.706 41.2978 151.014 39.9401 151.107 38.2319C151.135 37.8365 151.313 37.6376 151.639 37.6376C152.022 37.6376 152.2 37.8663 152.17 38.3239V39.4677C152.17 39.5299 152.17 39.6666 152.17 39.8805C152.17 40.0943 152.17 40.3081 152.17 40.522V42.3098Z" fill="#4C4B4B"/>
<path d="M178.104 38.5551C178.104 38.677 178.074 39.4254 178.012 40.798C177.949 42.1706 177.919 43.4835 177.919 44.7342V46.2436C174.903 46.0596 168.936 45.97 160.015 45.97C158.937 45.97 157.877 45.97 156.831 45.97C155.786 45.97 155.079 45.97 154.708 45.97H154.246C153.662 45.97 153.369 45.8482 153.369 45.602C153.369 45.4379 153.461 45.3434 153.645 45.3161C153.737 45.3161 154.321 45.2763 155.397 45.1918C156.197 45.1321 156.681 44.963 156.851 44.687C157.019 44.411 157.104 43.6924 157.104 42.5286V16.7306C157.104 15.8429 156.974 15.3157 156.713 15.1466C156.453 14.9775 155.613 14.8955 154.199 14.8955C153.707 14.8955 153.461 14.7662 153.461 14.5076C153.461 14.249 153.8 14.1197 154.477 14.1197H162.367C162.643 14.1197 164.383 14.1197 167.582 14.1197C170.781 14.1197 172.935 14.1197 174.043 14.1197C174.965 14.1197 175.81 14.0575 176.58 13.9357C176.64 15.2486 176.781 17.0638 176.996 19.3812L177.182 21.3506C177.212 21.5048 177.227 21.7012 177.227 21.9449C177.227 22.2507 177.089 22.4024 176.811 22.4024C176.472 22.4024 176.226 22.0195 176.074 21.2511C175.489 18.4886 174.534 16.738 173.213 15.9995C172.228 15.4475 169.643 15.1715 165.461 15.1715H161.677V28.6263H162.786C166.23 28.6263 168.331 28.3677 169.084 27.848C169.838 27.3308 170.352 25.819 170.63 23.3175C170.691 22.6759 170.861 22.3552 171.137 22.3552C171.475 22.3552 171.643 22.6287 171.643 23.1782C171.643 23.7278 171.613 24.5359 171.551 25.6026C171.488 26.6718 171.458 27.48 171.458 28.027C171.458 31.2919 171.508 33.5348 171.606 34.7557C171.631 35.0615 171.643 35.3201 171.643 35.5339C171.643 35.9318 171.475 36.1282 171.137 36.1282C170.921 36.1282 170.776 35.9989 170.701 35.7403C170.625 35.4817 170.493 34.6338 170.31 33.2016C170.064 31.4013 169.314 30.2873 168.058 29.8596C167.507 29.6756 166.067 29.5861 163.741 29.5861H161.672V44.9182C168.439 44.9182 172.408 44.784 173.579 44.5104C175.61 44.0579 176.763 42.1308 177.039 38.7242C177.099 37.9708 177.3 37.5953 177.638 37.5953C177.949 37.5953 178.104 37.9161 178.104 38.5551Z" fill="#4C4B4B"/>
<path d="M205.976 44.5502C205.976 45.8308 204.898 46.4723 202.747 46.4723C200.348 46.4723 198.47 45.4802 197.116 43.4984C196.532 42.6455 196.153 41.82 195.985 41.0267C195.815 40.2335 195.562 38.2194 195.223 34.9844C195.038 33.0324 194.408 31.6524 193.33 30.8418C192.252 30.0336 190.5 29.5985 188.07 29.5363V43.9534C188.07 44.5651 188.562 44.9456 189.547 45.0972C189.823 45.1271 190.532 45.1594 191.671 45.1892C192.069 45.1892 192.27 45.3111 192.27 45.5548C192.27 45.8283 192.009 45.9675 191.485 45.9675H190.931C190.655 45.9675 189.316 45.9675 186.917 45.9675C186.456 45.9675 185.671 45.9675 184.563 45.9675C183.485 45.9675 182.778 45.9675 182.439 45.9675H180.639C179.962 45.9675 179.624 45.8308 179.624 45.5548C179.624 45.3409 180.07 45.2191 180.962 45.1892C182.409 45.1594 183.194 44.9754 183.317 44.6397C183.44 44.488 183.502 43.8913 183.502 42.8544V17.5909C183.502 16.37 183.372 15.6389 183.111 15.3953C182.85 15.1516 182.058 15.0148 180.734 14.9825C179.965 14.9825 179.581 14.8457 179.581 14.5697C179.581 14.2639 179.827 14.1122 180.318 14.1122C180.411 14.1122 180.549 14.1271 180.734 14.157L186.872 14.2937C187.486 14.2937 188.349 14.2738 189.457 14.2315C190.688 14.1495 191.548 14.1097 192.042 14.1097C194.902 14.1097 197.171 14.7438 198.849 16.0094C200.526 17.2751 201.363 18.9933 201.363 21.1591C201.363 23.2951 200.501 25.058 198.778 26.4455C197.056 27.833 194.717 28.6511 191.763 28.8948C191.488 28.9246 191.332 28.9719 191.302 29.034C191.302 29.1559 191.455 29.2181 191.763 29.2181C194.993 29.7676 197.216 30.894 198.432 32.5923C199.648 34.2906 200.456 37.3591 200.854 41.7951C201.1 44.304 201.962 45.5573 203.439 45.5573C203.9 45.5573 204.131 45.4653 204.131 45.2837C204.131 45.2539 204.116 45.2241 204.086 45.1917C203.931 44.856 203.855 44.5825 203.855 44.3687C203.855 43.7271 204.194 43.4064 204.871 43.4064C205.605 43.4064 205.976 43.7893 205.976 44.5502ZM196.424 21.6216C196.424 17.2577 194.516 15.077 190.703 15.077C189.687 15.077 188.995 15.2137 188.627 15.4897C188.258 15.7633 188.073 16.2531 188.073 16.9543V28.579C191.026 28.6088 193.157 28.0767 194.464 26.9777C195.77 25.8786 196.424 24.0933 196.424 21.6216Z" fill="#4C4B4B"/>
<path d="M36.8211 31.456C36.8211 31.4137 36.7785 31.9955 36.6907 33.199C36.5178 35.611 36.43 38.023 36.43 40.4324C36.43 40.7333 36.4726 41.2828 36.5604 42.0785C36.6481 42.8767 36.6907 43.8341 36.6907 44.953V45.5349C36.6907 46.0943 36.5178 46.3753 36.1693 46.3753C35.8208 46.3753 35.5174 46.0521 35.2567 45.4056C34.6474 43.8987 34.0407 42.9737 33.434 42.6281C30.3075 45.3409 26.5518 46.6986 22.1668 46.6986C15.7836 46.6986 10.4985 44.493 6.30904 40.0769C2.11958 35.6632 0.0235996 30.0983 0.0235996 23.3796C0.0235996 16.6186 1.94408 11.096 5.78755 6.81164C9.63102 2.5273 14.5902 0.383881 20.6675 0.383881C22.8813 0.383881 24.6514 0.567887 25.9752 0.933411C27.2989 1.29894 28.9386 2.04242 30.8917 3.16137C31.8469 3.72085 32.5615 4.00183 33.0403 4.00183C33.4314 4.00183 33.8 3.65868 34.1485 2.96742C34.7126 1.76144 35.1689 1.15969 35.5174 1.15969C35.8634 1.15969 36.0389 1.33126 36.0389 1.67689C36.0389 1.84847 35.9963 2.12945 35.9085 2.51735C35.4296 4.58368 35.1915 8.46023 35.1915 14.1445C35.1915 14.9626 35.1263 15.4375 34.9959 15.5643C34.8655 15.6912 34.6925 15.7583 34.4744 15.7583C34.0407 15.7583 33.7574 15.3505 33.627 14.5299C33.0629 11.086 32.2606 8.5224 31.2176 6.84397C29.0891 3.40008 25.747 1.67689 21.189 1.67689C17.6715 1.67689 14.8935 2.8406 12.8527 5.16554C9.16218 9.34296 7.31691 15.4574 7.31691 23.5089C7.31691 30.7 8.83625 36.2774 11.8749 40.2385C14.5225 43.6849 18.04 45.4056 22.425 45.4056C24.6815 45.4056 26.7449 44.8461 28.6127 43.7271C30.478 42.6082 31.9221 41.069 32.9425 39.1096C33.963 37.1502 34.7552 34.7929 35.3193 32.0378C35.5349 31.0034 35.8183 30.4887 36.1667 30.4887C36.603 30.4862 36.8211 30.8095 36.8211 31.456Z" fill="#4C4B4B"/>
</svg>
