<svg width="60" height="60" viewBox="0 0 60 60" fill="none" xmlns="http://www.w3.org/2000/svg">
<path d="M18.125 33.75C19.6168 33.75 21.0476 33.1574 22.1025 32.1025C23.1574 31.0476 23.75 29.6168 23.75 28.125C23.75 26.6332 23.1574 25.2024 22.1025 24.1475C21.0476 23.0926 19.6168 22.5 18.125 22.5C16.6332 22.5 15.2024 23.0926 14.1475 24.1475C13.0926 25.2024 12.5 26.6332 12.5 28.125C12.5 29.6168 13.0926 31.0476 14.1475 32.1025C15.2024 33.1574 16.6332 33.75 18.125 33.75V33.75Z" fill="#A3A3A3"/>
<path d="M52.5 50C52.5 51.9891 51.7098 53.8968 50.3033 55.3033C48.8968 56.7098 46.9891 57.5 45 57.5H7.5C5.51088 57.5 3.60322 56.7098 2.1967 55.3033C0.790176 53.8968 0 51.9891 0 50V20C-9.93912e-07 18.0122 0.789146 16.1057 2.19405 14.6993C3.59895 13.293 5.50468 12.502 7.4925 12.5C7.4925 10.5109 8.28268 8.60322 9.6892 7.1967C11.0957 5.79018 13.0034 5 14.9925 5H52.4925C54.4816 5 56.3893 5.79018 57.7958 7.1967C59.2023 8.60322 59.9925 10.5109 59.9925 12.5V42.5C59.9925 44.4878 59.2034 46.3943 57.7985 47.8006C56.3936 49.207 54.4878 49.998 52.5 50ZM52.4925 8.75H14.9925C13.9979 8.75 13.0441 9.14509 12.3408 9.84835C11.6376 10.5516 11.2425 11.5054 11.2425 12.5H45C46.9891 12.5 48.8968 13.2902 50.3033 14.6967C51.7098 16.1032 52.5 18.0109 52.5 20V46.25C53.4933 46.248 54.4452 45.852 55.1468 45.149C55.8484 44.446 56.2425 43.4933 56.2425 42.5V12.5C56.2425 11.5054 55.8474 10.5516 55.1442 9.84835C54.4409 9.14509 53.4871 8.75 52.4925 8.75V8.75ZM7.5 16.25C6.50544 16.25 5.55161 16.6451 4.84835 17.3484C4.14509 18.0516 3.75 19.0054 3.75 20V50L13.6725 41.1725C13.979 40.8671 14.3817 40.6771 14.8123 40.6348C15.2429 40.5924 15.6748 40.7002 16.035 40.94L26.01 47.5888L39.9225 33.6763C40.2006 33.3979 40.5592 33.2141 40.9475 33.1508C41.3358 33.0876 41.7342 33.1481 42.0863 33.3238L48.75 40.625V20C48.75 19.0054 48.3549 18.0516 47.6516 17.3484C46.9484 16.6451 45.9946 16.25 45 16.25H7.5V16.25Z" fill="#A3A3A3"/>
</svg>
