<svg width="13" height="17" viewBox="0 0 13 17" fill="none" xmlns="http://www.w3.org/2000/svg">
<path d="M10.775 5.62499H10.0285V4.13214C10.0285 2.07199 8.35652 0.399994 6.29638 0.399994C4.23624 0.399994 2.56424 2.07199 2.56424 4.13214V5.62499H1.81781C0.996737 5.62499 0.324951 6.29678 0.324951 7.11785V14.5821C0.324951 15.4032 0.996737 16.075 1.81781 16.075H10.775C11.596 16.075 12.2678 15.4032 12.2678 14.5821V7.11785C12.2678 6.29678 11.596 5.62499 10.775 5.62499ZM4.05709 4.13214C4.05709 2.89307 5.05731 1.89285 6.29638 1.89285C7.53545 1.89285 8.53567 2.89307 8.53567 4.13214V5.62499H4.05709V4.13214ZM10.775 14.5821H1.81781V7.11785H10.775V14.5821ZM6.29638 12.3429C7.11745 12.3429 7.78924 11.6711 7.78924 10.85C7.78924 10.0289 7.11745 9.35714 6.29638 9.35714C5.47531 9.35714 4.80352 10.0289 4.80352 10.85C4.80352 11.6711 5.47531 12.3429 6.29638 12.3429Z" fill="#171717"/>
</svg>
